<svg width="1280" height="720" viewBox="0 0 1280 720" fill="none" xmlns="http://www.w3.org/2000/svg">
<g clip-path="url(#clip0_0_3)">
<path d="M1007 47C1041.79 47 1070 18.7939 1070 -16C1070 -50.7939 1041.79 -79 1007 -79C972.206 -79 944 -50.7939 944 -16C944 18.7939 972.206 47 1007 47Z" stroke="#44AB96" stroke-width="13" stroke-linejoin="round"/>
<path d="M1007.5 121C1085.1 121 1148 58.992 1148 -17.5C1148 -93.992 1085.1 -156 1007.5 -156C929.9 -156 867 -93.992 867 -17.5" stroke="#DA774A" stroke-width="13" stroke-linecap="round" stroke-linejoin="round"/>
<path d="M1304.83 940C1219.87 940 1151 864.565 1151 771.512C1150.88 740.671 1158.7 710.317 1173.7 683.37M1410 602H1305.2C1271.67 602 1240.64 613.6 1215.35 633.3" stroke="#FFB017" stroke-width="13" stroke-linecap="round" stroke-linejoin="round"/>
<path d="M1151.5 141C1119.74 141 1094 166.744 1094 198.5C1094 230.256 1119.74 256 1151.5 256C1183.26 256 1209 230.256 1209 198.5V141M894.5 593.582C857.773 593.582 828 564.127 828 527.782C828 491.437 857.773 462 894.5 462C931.227 462 961 491.455 961 527.8V729" stroke="#44AB96" stroke-width="13" stroke-linecap="round" stroke-linejoin="round"/>
<path d="M885.5 295.708C853.744 295.708 828 321.068 828 352.354C828 383.64 853.744 409 885.5 409C917.256 409 943 383.64 943 352.354V121" stroke="#FFB017" stroke-width="13" stroke-linecap="round" stroke-linejoin="round"/>
<path d="M1089.5 598C1081.69 598.007 1073.96 596.475 1066.75 593.494C1059.53 590.512 1052.97 586.139 1047.45 580.623C1041.92 575.107 1037.54 568.557 1034.54 561.347C1031.55 554.136 1030.01 546.407 1030 538.6V369.4C1030.01 361.593 1031.55 353.864 1034.54 346.653C1037.54 339.443 1041.92 332.893 1047.45 327.377C1052.97 321.861 1059.53 317.488 1066.75 314.506C1073.96 311.525 1081.69 309.993 1089.5 310V310C1097.31 309.993 1105.04 311.525 1112.25 314.506C1119.47 317.488 1126.03 321.861 1131.55 327.377C1137.08 332.893 1141.46 339.443 1144.46 346.653C1147.45 353.864 1148.99 361.593 1149 369.4V538.6C1148.99 546.407 1147.45 554.136 1144.46 561.347C1141.46 568.557 1137.08 575.107 1131.55 580.623C1126.03 586.139 1119.47 590.512 1112.25 593.494C1105.04 596.475 1097.31 598.007 1089.5 598V598Z" stroke="#DA774A" stroke-width="13" stroke-linejoin="round"/>
<path d="M894.75 679H889.94C881.802 679.004 873.744 680.611 866.227 683.729C858.71 686.847 851.881 691.415 846.129 697.172C840.378 702.929 835.816 709.763 832.706 717.283C829.595 724.803 827.996 732.862 828 741C827.992 757.435 834.513 773.201 846.129 784.828C857.745 796.455 873.504 802.992 889.939 803H1033.06C1049.5 802.992 1065.26 796.455 1076.87 784.828C1088.49 773.201 1095.01 757.435 1095 741V741C1095.01 724.565 1088.49 708.799 1076.87 697.172C1065.26 685.545 1049.5 679.008 1033.06 679H1028.25" stroke="#DA774A" stroke-width="13" stroke-linecap="round" stroke-linejoin="round"/>
<path d="M867.5 53V237" stroke="#44AB96" stroke-width="13" stroke-linecap="round" stroke-linejoin="round"/>
</g>
<defs>
<clipPath id="clip0_0_3">
<rect width="1280" height="720" fill="white"/>
</clipPath>
</defs>
</svg>


